<svg xmlns="http://www.w3.org/2000/svg" xmlns:xlink="http://www.w3.org/1999/xlink">
    <symbol id="icon-image" viewBox="0 0 28 28">
        <path d="M27.8772 21.4288L21.9097 11.3575C21.7558 11.0951 21.5356 10.8778 21.2713 10.7273C21.007 10.5768 20.7077 10.4984 20.4036 10.5C20.0995 10.4984 19.8005 10.5768 19.5363 10.7273C19.2721 10.8778 19.0522 11.0952 18.8986 11.3575L17.1879 14.2439C17.1481 14.3113 17.1271 14.3882 17.1271 14.4665C17.1271 14.5448 17.1481 14.6217 17.1879 14.6891L20.1192 19.6623C20.2305 19.847 20.2709 20.0659 20.2329 20.2782C20.1949 20.4905 20.081 20.6817 19.9125 20.8163C19.8143 20.8925 19.7009 20.947 19.58 20.976C19.4591 21.005 19.3334 21.0079 19.2113 20.9845C19.0891 20.9611 18.9734 20.912 18.8718 20.8403C18.7701 20.7687 18.6849 20.6762 18.6218 20.5691L11.1329 7.86188C10.9784 7.59923 10.7579 7.38148 10.4934 7.2302C10.2289 7.07892 9.9294 6.99934 9.62466 6.99934C9.31992 6.99934 9.02045 7.07892 8.75591 7.2302C8.49137 7.38148 8.27092 7.59923 8.11638 7.86188L0.121066 21.4309C0.0245966 21.5931 -0.0168751 21.7821 0.00283559 21.9697C0.0225463 22.1574 0.102384 22.3336 0.230441 22.4722C0.316671 22.5624 0.420703 22.6336 0.535935 22.6814C0.651166 22.7293 0.775081 22.7526 0.899816 22.75H27.0995C27.2237 22.7516 27.3469 22.7277 27.4615 22.6797C27.5761 22.6317 27.6796 22.5607 27.7656 22.4711C27.8942 22.3327 27.9746 22.1564 27.9947 21.9685C28.0149 21.7806 27.9736 21.5912 27.8772 21.4288ZM7.04669 13.125L9.62466 8.75L12.2026 13.125H7.04669ZM15.3122 5.6875C15.3122 5.16833 15.4661 4.66081 15.7546 4.22913C16.043 3.79745 16.453 3.461 16.9326 3.26232C17.4123 3.06364 17.9401 3.01165 18.4493 3.11294C18.9585 3.21423 19.4262 3.46423 19.7933 3.83135C20.1604 4.19846 20.4104 4.66619 20.5117 5.17539C20.613 5.68459 20.561 6.21239 20.3623 6.69205C20.1637 7.1717 19.8272 7.58167 19.3955 7.87011C18.9639 8.15855 18.4563 8.3125 17.9372 8.3125C17.241 8.3125 16.5733 8.03594 16.081 7.54366C15.5887 7.05137 15.3122 6.38369 15.3122 5.6875Z" fill="currentColor"></path>
    </symbol>
    <symbol id="icon-fish" viewBox="0 0 28 28">
        <path fill-rule="evenodd" clip-rule="evenodd" d="M24.2216 1.75V7.90668C24.5174 7.96118 24.8003 8.07616 25.0523 8.24588C25.4153 8.49046 25.6975 8.83753 25.8639 9.24258C26.0303 9.64758 26.0738 10.0929 25.989 10.5225C25.9043 10.9522 25.6949 11.3475 25.3866 11.6584C25.0782 11.9692 24.6847 12.1816 24.2555 12.2676C23.8263 12.3537 23.3814 12.3095 22.9774 12.1408C22.5734 11.9721 22.229 11.6868 21.9871 11.3218C21.7453 10.9568 21.6165 10.5283 21.6165 10.0904H22.929C22.929 10.2711 22.9821 10.4473 23.0812 10.5967C23.1801 10.746 23.3202 10.8616 23.4832 10.9296C23.646 10.9977 23.8249 11.0154 23.9974 10.9808C24.17 10.9462 24.3293 10.8606 24.4548 10.7341C24.5803 10.6075 24.6664 10.4456 24.7014 10.2685C24.7363 10.0914 24.7183 9.90787 24.6499 9.74137C24.5815 9.57492 24.4661 9.43351 24.319 9.33442C24.1719 9.23537 23.9997 9.18285 23.8239 9.18285H23.5505L22.9091 8.53622V1.75H24.2216ZM3.76908 2.1363H4.92975L5.11094 2.28645L5.11265 2.28784L5.12394 2.29692C5.13491 2.30567 5.15271 2.31967 5.17695 2.33818C5.22548 2.37524 5.2996 2.43018 5.39639 2.49709C5.59042 2.63123 5.87288 2.81163 6.22035 2.99205C6.90618 3.34816 7.80498 3.68331 8.75766 3.69952C9.7805 3.35374 10.8527 3.17778 11.9322 3.17886H12.7591C15.6656 3.17886 18.2589 4.55962 19.9548 6.83076L20.0852 7.00542V7.97794L19.6106 8.11465C18.7896 8.35115 18.009 8.77182 17.4224 9.14531C17.3464 9.1937 17.2741 9.24101 17.2059 9.28669C17.6843 9.42764 18.3664 9.58829 19.2525 9.69996L19.8267 9.77233V10.882L19.6364 11.0738C18.5551 12.164 17.5279 12.8771 16.4012 13.3095C15.2783 13.7404 14.1034 13.8743 12.7591 13.8743H11.9318C10.0842 13.8743 8.4517 15.601 8.4517 17.9096C8.4517 20.0658 9.87594 21.7144 11.5694 21.9226C12.8083 19.9275 14.9755 18.2959 17.5159 18.2959H18.1722V19.565L17.8804 19.7585L17.8794 19.7591L17.8786 19.7597L17.8697 19.7659C17.8598 19.7728 17.8435 19.7844 17.8215 19.8006C17.7776 19.8331 17.7117 19.8837 17.6311 19.9514C17.469 20.0875 17.2523 20.2889 17.0366 20.5464C16.5994 21.0684 16.2074 21.7705 16.2074 22.6011C16.2074 23.4316 16.5994 24.1338 17.0366 24.6557C17.2523 24.9133 17.469 25.1146 17.6311 25.2507C17.7117 25.3184 17.7776 25.3691 17.8215 25.4015C17.8435 25.4178 17.8598 25.4294 17.8697 25.4363L17.8786 25.4425L17.8794 25.443L17.8804 25.4436L18.1722 25.6372V26.9062H17.5159C14.963 26.9062 12.7869 25.2585 11.5511 23.25C9.04542 23.1535 6.66315 22.1077 4.88498 20.315C3.01714 18.4319 1.96875 15.8789 1.96875 13.2181C1.96875 9.52233 2.36155 6.86669 2.76086 5.12219C2.96049 4.25008 3.1616 3.60626 3.31574 3.17459C3.3928 2.95878 3.45809 2.79608 3.50554 2.68446C3.52926 2.62866 3.54852 2.58563 3.56255 2.55513C3.56957 2.53989 3.57528 2.52777 3.57959 2.51875L3.58499 2.50755L3.58688 2.50369L3.58762 2.50219C3.58762 2.50219 3.58822 2.50098 4.17614 2.79255L3.58822 2.50098L3.76908 2.1363ZM4.58299 3.52987C4.57291 3.55728 4.56251 3.58597 4.5518 3.61596C4.4151 3.99879 4.22844 4.59301 4.04027 5.41504C3.89898 6.03233 3.75677 6.77842 3.63425 7.66028C3.69061 7.57481 3.74834 7.49012 3.80741 7.40623C4.59465 6.28837 5.59625 5.35076 6.74564 4.6443C6.32257 4.49872 5.9412 4.32599 5.61552 4.15689C5.21004 3.94635 4.88012 3.73579 4.65002 3.57671C4.62666 3.56057 4.60431 3.54494 4.58299 3.52987ZM3.28125 13.2181C3.28125 15.5343 4.19393 17.7545 5.81683 19.3907C6.46933 20.0485 7.21512 20.5903 8.02272 21.003C7.46291 20.1198 7.1392 19.0458 7.1392 17.9096C7.1392 15.0366 9.20871 12.5618 11.9318 12.5618H12.7591C14.0197 12.5618 15.0163 12.4351 15.9309 12.0841C16.6132 11.8223 17.2761 11.4254 17.9807 10.8243C17.4352 10.7165 16.9904 10.5966 16.6465 10.4883C16.3701 10.4012 16.159 10.3216 16.0133 10.262C15.9405 10.2321 15.8841 10.2073 15.844 10.189C15.8239 10.1798 15.808 10.1723 15.7961 10.1666L15.7814 10.1594L15.7763 10.1569L15.7744 10.1559L15.7735 10.1555C15.7735 10.1555 15.7728 10.1552 16.0682 9.56915L15.7735 10.1555L15.4119 9.97325V9.00274L15.646 8.80606L16.0682 9.30851C15.646 8.80606 15.646 8.80606 15.646 8.80606L15.6471 8.80519L15.6487 8.80385L15.6536 8.79977L15.6701 8.78616C15.684 8.77473 15.7038 8.75866 15.7291 8.73847C15.7797 8.6981 15.8525 8.64117 15.945 8.57181C16.1296 8.43328 16.3939 8.24421 16.7175 8.0382C17.1918 7.73617 17.8075 7.38867 18.4958 7.11295C17.0474 5.46182 15.0119 4.49136 12.7591 4.49136H11.9318C10.9625 4.49036 9.99911 4.65399 9.08348 4.97546C7.38947 5.57203 5.92045 6.68527 4.88051 8.16195C3.84048 9.63877 3.28133 11.4058 3.28125 13.2181ZM15.8647 25.2912C15.3722 24.6448 14.8949 23.7291 14.8949 22.6011C14.8949 21.4731 15.3722 20.5573 15.8647 19.9109C14.575 20.3873 13.4504 21.3846 12.6928 22.6011C13.4504 23.8175 14.575 24.8148 15.8647 25.2912Z" fill="currentColor"></path><path fill-rule="evenodd" clip-rule="evenodd" d="M17.827 8.44468C18.4095 8.22373 18.8124 8.07092 18.8124 6.99991C18.8124 6.17221 15.7499 4.37491 13.9999 4.37491C13.5418 3.80337 11.6235 4.04832 10.1619 4.23494C9.5773 4.30959 9.06575 4.37491 8.74994 4.37491C6.81695 4.37491 2.625 10.7544 2.625 12.6874C2.625 13.015 5.20533 20.8006 6.5625 20.9999C6.87509 21.0458 7.0735 21.1321 7.26646 21.2159C7.53151 21.3311 7.78627 21.4418 8.3125 21.4374C7.4375 17.9374 8.89751 13.6716 9.625 13.5624C10.2258 13.4722 11.0391 13.3619 11.9018 13.2448C13.2795 13.0579 14.7833 12.8538 15.75 12.6874C16.971 12.4773 17.418 11.9835 17.7907 11.572C18.0728 11.2604 18.3122 10.996 18.8124 10.9374C19.8725 10.8134 18.121 10.2764 16.9874 9.92886C16.4121 9.75246 15.9959 9.62488 16.1874 9.62488C16.7728 8.84451 17.3581 8.62252 17.827 8.44468ZM14.6545 5.91984H13.3438V8.00138H14.6545V5.91984Z" fill="currentColor"></path>
    </symbol>
    <symbol id="icon-position" viewBox="0 0 28 28">
        <path d="M25.375 13.125H24.4628C24.2528 10.6525 23.1753 8.33394 21.4207 6.57934C19.6661 4.82473 17.3475 3.74716 14.875 3.53719V2.625C14.875 2.39294 14.7828 2.17038 14.6187 2.00628C14.4546 1.84219 14.2321 1.75 14 1.75C13.7679 1.75 13.5454 1.84219 13.3813 2.00628C13.2172 2.17038 13.125 2.39294 13.125 2.625V3.53719C10.6525 3.74716 8.33394 4.82473 6.57934 6.57934C4.82473 8.33394 3.74716 10.6525 3.53719 13.125H2.625C2.39294 13.125 2.17038 13.2172 2.00628 13.3813C1.84219 13.5454 1.75 13.7679 1.75 14C1.75 14.2321 1.84219 14.4546 2.00628 14.6187C2.17038 14.7828 2.39294 14.875 2.625 14.875H3.53719C3.74716 17.3475 4.82473 19.6661 6.57934 21.4207C8.33394 23.1753 10.6525 24.2528 13.125 24.4628V25.375C13.125 25.6071 13.2172 25.8296 13.3813 25.9937C13.5454 26.1578 13.7679 26.25 14 26.25C14.2321 26.25 14.4546 26.1578 14.6187 25.9937C14.7828 25.8296 14.875 25.6071 14.875 25.375V24.4628C17.3475 24.2528 19.6661 23.1753 21.4207 21.4207C23.1753 19.6661 24.2528 17.3475 24.4628 14.875H25.375C25.6071 14.875 25.8296 14.7828 25.9937 14.6187C26.1578 14.4546 26.25 14.2321 26.25 14C26.25 13.7679 26.1578 13.5454 25.9937 13.3813C25.8296 13.2172 25.6071 13.125 25.375 13.125ZM21.875 14.875H22.7063C22.5014 16.8822 21.6106 18.7573 20.1839 20.1839C18.7573 21.6106 16.8822 22.5014 14.875 22.7063V21.875C14.875 21.6429 14.7828 21.4204 14.6187 21.2563C14.4546 21.0922 14.2321 21 14 21C13.7679 21 13.5454 21.0922 13.3813 21.2563C13.2172 21.4204 13.125 21.6429 13.125 21.875V22.7063C11.1178 22.5014 9.24274 21.6106 7.81609 20.1839C6.38944 18.7573 5.49855 16.8822 5.29375 14.875H6.125C6.35706 14.875 6.57962 14.7828 6.74372 14.6187C6.90781 14.4546 7 14.2321 7 14C7 13.7679 6.90781 13.5454 6.74372 13.3813C6.57962 13.2172 6.35706 13.125 6.125 13.125H5.29375C5.49855 11.1178 6.38944 9.24274 7.81609 7.81609C9.24274 6.38944 11.1178 5.49855 13.125 5.29375V6.125C13.125 6.35706 13.2172 6.57962 13.3813 6.74372C13.5454 6.90781 13.7679 7 14 7C14.2321 7 14.4546 6.90781 14.6187 6.74372C14.7828 6.57962 14.875 6.35706 14.875 6.125V5.29375C16.8822 5.49855 18.7573 6.38944 20.1839 7.81609C21.6106 9.24274 22.5014 11.1178 22.7063 13.125H21.875C21.6429 13.125 21.4204 13.2172 21.2563 13.3813C21.0922 13.5454 21 13.7679 21 14C21 14.2321 21.0922 14.4546 21.2563 14.6187C21.4204 14.7828 21.6429 14.875 21.875 14.875ZM18.375 14C18.375 14.8653 18.1184 15.7112 17.6377 16.4306C17.1569 17.1501 16.4737 17.7108 15.6742 18.042C14.8748 18.3731 13.9951 18.4597 13.1465 18.2909C12.2978 18.1221 11.5183 17.7054 10.9064 17.0936C10.2946 16.4817 9.87787 15.7022 9.70906 14.8535C9.54025 14.0049 9.62689 13.1252 9.95803 12.3258C10.2892 11.5263 10.8499 10.8431 11.5694 10.3623C12.2888 9.88159 13.1347 9.625 14 9.625C15.1603 9.625 16.2731 10.0859 17.0936 10.9064C17.9141 11.7269 18.375 12.8397 18.375 14Z" fill="currentColor"></path>
    </symbol>
    <symbol id="icon-arrow" viewBox="0 0 14 14">
        <path d="M13.7504 1V10.75C13.7504 10.9489 13.6714 11.1397 13.5307 11.2803C13.3901 11.421 13.1993 11.5 13.0004 11.5C12.8015 11.5 12.6107 11.421 12.4701 11.2803C12.3294 11.1397 12.2504 10.9489 12.2504 10.75V2.81031L1.53104 13.5306C1.39031 13.6714 1.19944 13.7504 1.00042 13.7504C0.801394 13.7504 0.610523 13.6714 0.469792 13.5306C0.329062 13.3899 0.25 13.199 0.25 13C0.25 12.801 0.329062 12.6101 0.469792 12.4694L11.1901 1.75H3.25042C3.0515 1.75 2.86074 1.67098 2.72009 1.53033C2.57943 1.38968 2.50042 1.19891 2.50042 1C2.50042 0.801088 2.57943 0.610322 2.72009 0.46967C2.86074 0.329018 3.0515 0.25 3.25042 0.25H13.0004C13.1993 0.25 13.3901 0.329018 13.5307 0.46967C13.6714 0.610322 13.7504 0.801088 13.7504 1Z" fill="white"/>
    </symbol>
    <symbol id="icon-arrow-blue" viewBox="0 0 14 14">
        <path d="M13.7504 1V10.75C13.7504 10.9489 13.6714 11.1397 13.5307 11.2803C13.3901 11.421 13.1993 11.5 13.0004 11.5C12.8015 11.5 12.6107 11.421 12.4701 11.2803C12.3294 11.1397 12.2504 10.9489 12.2504 10.75V2.81031L1.53104 13.5306C1.39031 13.6714 1.19944 13.7504 1.00042 13.7504C0.801394 13.7504 0.610523 13.6714 0.469792 13.5306C0.329062 13.3899 0.25 13.199 0.25 13C0.25 12.801 0.329062 12.6101 0.469792 12.4694L11.1901 1.75H3.25042C3.0515 1.75 2.86074 1.67098 2.72009 1.53033C2.57943 1.38968 2.50042 1.19891 2.50042 1C2.50042 0.801088 2.57943 0.610322 2.72009 0.46967C2.86074 0.329018 3.0515 0.25 3.25042 0.25H13.0004C13.1993 0.25 13.3901 0.329018 13.5307 0.46967C13.6714 0.610322 13.7504 0.801088 13.7504 1Z" fill="currentColor"/>
    </symbol>
    <symbol id="icon-bars" viewBox="0 0 24 24">
        <path d="M3 7H21" stroke="white" stroke-width="1.5" stroke-linecap="round"></path><path d="M3 12H21" stroke="white" stroke-width="1.5" stroke-linecap="round"></path><path d="M3 17H21" stroke="white" stroke-width="1.5" stroke-linecap="round"></path>
    </symbol>
    <symbol id="icon-face" viewBox="0 0 33 32">
        <rect x="0.5" width="32" height="32" rx="16" fill="#F2542D"></rect><path d="M26.4993 20.19C26.4993 23.83 24.3293 26 20.6893 26H19.4993C18.9493 26 18.4993 25.55 18.4993 25V19.23C18.4993 18.96 18.7193 18.73 18.9893 18.73L20.7493 18.7C20.8893 18.69 21.0093 18.59 21.0393 18.45L21.3893 16.54C21.4193 16.36 21.2793 16.19 21.0893 16.19L18.9593 16.22C18.6793 16.22 18.4593 16 18.4493 15.73L18.4093 13.28C18.4093 13.12 18.5393 12.98 18.7093 12.98L21.1093 12.94C21.2793 12.94 21.4093 12.81 21.4093 12.64L21.3693 10.24C21.3693 10.07 21.2393 9.94 21.0693 9.94L18.3693 9.98001C16.7093 10.01 15.3893 11.37 15.4193 13.03L15.4693 15.78C15.4793 16.06 15.2593 16.28 14.9793 16.29L13.7793 16.31C13.6093 16.31 13.4793 16.44 13.4793 16.61L13.5093 18.51C13.5093 18.68 13.6393 18.81 13.8093 18.81L15.0093 18.79C15.2893 18.79 15.5093 19.01 15.5193 19.28L15.6093 24.98C15.6193 25.54 15.1693 26 14.6093 26H12.3093C8.66927 26 6.49927 23.83 6.49927 20.18V11.81C6.49927 8.17 8.66927 6 12.3093 6H20.6893C24.3293 6 26.4993 8.17 26.4993 11.81V20.19Z" fill="white"></path>
    </symbol>
    <symbol id="icon-instagram" viewBox="0 0 33 32">
        <rect x="0.5" width="32" height="32" rx="16" fill="#F2542D"></rect><path d="M20.6916 6H12.3116C8.67159 6 6.50159 8.17 6.50159 11.81V20.18C6.50159 23.83 8.67159 26 12.3116 26H20.6816C24.3216 26 26.4916 23.83 26.4916 20.19V11.81C26.5016 8.17 24.3316 6 20.6916 6ZM16.5016 19.88C14.3616 19.88 12.6216 18.14 12.6216 16C12.6216 13.86 14.3616 12.12 16.5016 12.12C18.6416 12.12 20.3816 13.86 20.3816 16C20.3816 18.14 18.6416 19.88 16.5016 19.88ZM22.4216 10.88C22.3716 11 22.3016 11.11 22.2116 11.21C22.1116 11.3 22.0016 11.37 21.8816 11.42C21.7616 11.47 21.6316 11.5 21.5016 11.5C21.2316 11.5 20.9816 11.4 20.7916 11.21C20.7016 11.11 20.6316 11 20.5816 10.88C20.5316 10.76 20.5016 10.63 20.5016 10.5C20.5016 10.37 20.5316 10.24 20.5816 10.12C20.6316 9.99 20.7016 9.89 20.7916 9.79C21.0216 9.56 21.3716 9.45 21.6916 9.52C21.7616 9.53 21.8216 9.55 21.8816 9.58C21.9416 9.6 22.0016 9.63 22.0616 9.67C22.1116 9.7 22.1616 9.75 22.2116 9.79C22.3016 9.89 22.3716 9.99 22.4216 10.12C22.4716 10.24 22.5016 10.37 22.5016 10.5C22.5016 10.63 22.4716 10.76 22.4216 10.88Z" fill="white"></path>
    </symbol>
    <symbol id="icon-youtube" viewBox="0 0 33 32">
        <rect x="0.5" width="32" height="32" rx="16" fill="#F2542D"></rect><path d="M21.5016 8H11.5016C8.50159 8 6.50159 10 6.50159 13V19C6.50159 22 8.50159 24 11.5016 24H21.5016C24.5016 24 26.5016 22 26.5016 19V13C26.5016 10 24.5016 8 21.5016 8ZM18.3916 17.03L15.9216 18.51C14.9216 19.11 14.1016 18.65 14.1016 17.48V14.51C14.1016 13.34 14.9216 12.88 15.9216 13.48L18.3916 14.96C19.3416 15.54 19.3416 16.46 18.3916 17.03Z" fill="white"></path>
    </symbol>
    <symbol id="icon-1" viewBox="0 0 58 58">
        <rect width="58" height="58" rx="29" fill="#0E9594"/>
        <path d="M29.0017 44.2434C27.4575 44.2434 25.9275 43.79 24.7234 42.8975L18.6317 38.35C17.0167 37.1459 15.7559 34.6242 15.7559 32.6267V22.0867C15.7559 19.905 17.3567 17.5817 19.4109 16.8167L26.48 14.1675C27.8825 13.6434 30.0925 13.6434 31.495 14.1675L38.5642 16.8167C40.6184 17.5817 42.2192 19.905 42.2192 22.0867V32.6125C42.2192 34.6242 40.9584 37.1317 39.3434 38.3359L33.2517 42.8834C32.0759 43.79 30.5459 44.2434 29.0017 44.2434ZM27.2309 16.165L20.1617 18.8142C18.9575 19.2675 17.895 20.7975 17.895 22.1009V32.6267C17.895 33.9725 18.8442 35.8567 19.9067 36.65L25.9984 41.1975C27.6275 42.4159 30.3759 42.4159 32.0192 41.1975L38.1109 36.65C39.1875 35.8425 40.1225 33.9725 40.1225 32.6267V22.0867C40.1225 20.7975 39.06 19.2675 37.8559 18.8L30.7867 16.1509C29.8234 15.8109 28.18 15.8109 27.2309 16.165Z" fill="white"/>
        <path d="M27.1015 32.1594C26.8323 32.1594 26.5632 32.0602 26.3507 31.8477L24.0698 29.5669C23.659 29.1561 23.659 28.4761 24.0698 28.0652C24.4807 27.6544 25.1607 27.6544 25.5715 28.0652L27.1015 29.5952L32.4423 24.2544C32.8532 23.8436 33.5332 23.8436 33.944 24.2544C34.3548 24.6652 34.3548 25.3452 33.944 25.7561L27.8523 31.8477C27.6398 32.0602 27.3707 32.1594 27.1015 32.1594Z" fill="white"/>
    </symbol>
    <symbol id="icon-2" viewBox="0 0 58 58">
        <rect width="58" height="58" rx="29" fill="#0E9594"/>
        <path d="M45.7731 26.3318L42.3837 19.5504C42.2589 19.3008 42.0861 19.0782 41.8752 18.8954C41.6643 18.7126 41.4195 18.5731 41.1547 18.4849C40.8899 18.3967 40.6103 18.3616 40.332 18.3815C40.0536 18.4013 39.7818 18.4758 39.5323 18.6007L36.2292 20.2516L29.2712 18.4108C29.0926 18.3644 28.9052 18.3644 28.7266 18.4108L21.7686 20.2516L18.4655 18.6007C18.216 18.4758 17.9442 18.4013 17.6658 18.3815C17.3875 18.3616 17.1079 18.3967 16.8431 18.4849C16.5783 18.5731 16.3335 18.7126 16.1226 18.8954C15.9117 19.0782 15.7389 19.3008 15.6141 19.5504L12.2247 26.3304C12.0998 26.58 12.0253 26.8517 12.0054 27.1301C11.9855 27.4085 12.0207 27.6881 12.1089 27.9529C12.197 28.2177 12.3365 28.4625 12.5193 28.6734C12.7021 28.8842 12.9247 29.0571 13.1743 29.1819L16.7602 30.9762L24.13 36.2396C24.2386 36.3168 24.3607 36.3731 24.4899 36.4056L32.9899 38.5306C33.1679 38.5752 33.3545 38.573 33.5314 38.5241C33.7082 38.4752 33.8695 38.3814 33.9993 38.2517L41.3133 30.9364L44.8222 29.1819C45.3259 28.9297 45.7089 28.4879 45.887 27.9534C46.0651 27.419 46.0236 26.8357 45.7718 26.3318H45.7731ZM38.483 30.7637L33.913 27.1034C33.7082 26.9394 33.4501 26.857 33.1882 26.872C32.9263 26.8869 32.6793 26.9982 32.4945 27.1844C30.1291 29.5671 27.4928 29.2656 25.8114 28.2031L31.5542 22.625H35.779L39.3928 29.8513L38.483 30.7637ZM17.5146 20.5L20.2333 21.8573L16.8373 28.6374L14.1239 27.2814L17.5146 20.5ZM32.9209 36.3219L25.2031 34.3935L18.6687 29.7264L22.3875 22.2889L28.9989 20.5372L30.3005 20.8811L24.3239 26.6824L24.3133 26.6943C24.0883 26.9193 23.9167 27.1919 23.8112 27.4921C23.7056 27.7922 23.6689 28.1123 23.7035 28.4285C23.7382 28.7448 23.8435 29.0492 24.0115 29.3194C24.1796 29.5896 24.4062 29.8185 24.6745 29.9894C27.4052 31.7332 30.7002 31.4504 33.2954 29.3254L36.9677 32.2751L32.9209 36.3219ZM41.1552 28.6361L37.7659 21.8626L40.4832 20.5L43.8739 27.2814L41.1552 28.6361ZM29.5009 40.9438C29.4435 41.1734 29.3111 41.3773 29.1246 41.5231C28.9382 41.6689 28.7083 41.7483 28.4716 41.7486C28.3843 41.7485 28.2974 41.7378 28.2127 41.7168L22.6784 40.3329C22.5489 40.3009 22.4268 40.2446 22.3184 40.1668L18.8188 37.6673C18.6036 37.4984 18.4619 37.2529 18.4232 36.9821C18.3844 36.7113 18.4517 36.4359 18.6108 36.2134C18.77 35.9909 19.0089 35.8384 19.2777 35.7876C19.5465 35.7368 19.8246 35.7917 20.054 35.9407L23.3889 38.3234L28.7333 39.6568C29.0066 39.7252 29.2416 39.8993 29.3865 40.1409C29.5315 40.3825 29.5745 40.6718 29.5062 40.9451L29.5009 40.9438Z" fill="white"/>
    </symbol>
    <symbol id="icon-3" viewBox="0 0 58 58">
        <rect width="58" height="58" rx="29" fill="#0E9594"/>
        <path d="M29 15.1875C26.2682 15.1875 23.5976 15.9976 21.3262 17.5153C19.0547 19.0331 17.2844 21.1903 16.2389 23.7142C15.1935 26.2381 14.92 29.0153 15.4529 31.6947C15.9859 34.374 17.3014 36.8352 19.2331 38.7669C21.1648 40.6986 23.626 42.0141 26.3053 42.5471C28.9847 43.0801 31.7619 42.8065 34.2858 41.7611C36.8097 40.7157 38.9669 38.9453 40.4847 36.6738C42.0024 34.4024 42.8125 31.7319 42.8125 29C42.8086 25.3379 41.3522 21.8269 38.7626 19.2374C36.1731 16.6479 32.6621 15.1914 29 15.1875ZM40.6875 29C40.6887 30.4994 40.4 31.9849 39.8375 33.3748L33.9008 29.7238C33.6484 29.5681 33.366 29.4672 33.072 29.4277L30.0413 29.0186C29.6236 28.9641 29.1992 29.0341 28.8212 29.2198C28.4432 29.4055 28.1284 29.6987 27.9163 30.0625H26.7581L26.2534 29.0186C26.1139 28.7279 25.9097 28.473 25.6565 28.2734C25.4033 28.0739 25.1077 27.9349 24.7925 27.8671L23.73 27.6373L24.7686 25.8125H26.9879C27.347 25.8118 27.7001 25.7204 28.0145 25.5469L29.6415 24.6491C29.7844 24.5694 29.9181 24.4741 30.0399 24.3648L33.6139 21.1322C33.9722 20.8111 34.2104 20.3774 34.2891 19.9027C34.3678 19.428 34.2824 18.9407 34.0469 18.5211L33.9991 18.4348C35.999 19.383 37.6889 20.879 38.8728 22.7491C40.0567 24.6192 40.6859 26.7867 40.6875 29ZM31.0334 17.4905L32.1875 19.557L28.6135 22.7897L26.9879 23.6875H24.7686C24.3951 23.6869 24.028 23.7849 23.7043 23.9714C23.3807 24.1579 23.1119 24.4265 22.9252 24.75L21.7657 26.7727L20.4177 23.1815L21.8706 19.7456C23.1567 18.7519 24.6362 18.0378 26.2142 17.649C27.7923 17.2602 29.4342 17.2053 31.0347 17.4878L31.0334 17.4905ZM17.3125 29C17.3107 27.2628 17.6983 25.5474 18.4467 23.9797L19.9528 27.9999C20.0783 28.3328 20.2854 28.6288 20.555 28.8609C20.8247 29.0929 21.1483 29.2535 21.4961 29.328L24.3423 29.9403L24.8483 30.9922C25.0239 31.3499 25.2961 31.6515 25.634 31.8627C25.972 32.0739 26.3623 32.1864 26.7608 32.1875H26.9573L25.9971 34.343C25.8279 34.7226 25.7737 35.1434 25.8412 35.5535C25.9088 35.9635 26.095 36.3447 26.377 36.65L26.3956 36.6686L29 39.3514L28.7423 40.6795C25.6901 40.6085 22.7864 39.3474 20.651 37.1653C18.5156 34.9833 17.3176 32.0531 17.3125 29ZM30.9364 40.5255L31.0865 39.7538C31.1482 39.426 31.1322 39.0883 31.04 38.7677C30.9478 38.4472 30.7817 38.1526 30.5552 37.9077C30.5487 37.9019 30.5425 37.8957 30.5366 37.8891L27.9375 35.2077L29.757 31.125L32.7878 31.5341L38.86 35.2687C37.9803 36.6503 36.8206 37.832 35.4557 38.7375C34.0909 39.6429 32.5513 40.252 30.9364 40.5255Z" fill="white"/>
    </symbol>
    <symbol id="icon-4" viewBox="0 0 58 58">
        <rect width="58" height="58" rx="29" fill="#0E9594"/>
        <path d="M45.6898 29.7518L42.5023 32.9393C42.4036 33.0381 42.2865 33.1165 42.1575 33.17C42.0285 33.2234 41.8902 33.2509 41.7506 33.2509C41.611 33.2509 41.4727 33.2234 41.3437 33.17C41.2147 33.1165 41.0975 33.0381 40.9989 32.9393L37.8114 29.7518C37.612 29.5525 37.5 29.2821 37.5 29.0001C37.5 28.7182 37.612 28.4478 37.8114 28.2484C38.0107 28.049 38.2811 27.937 38.5631 27.937C38.845 27.937 39.1154 28.049 39.3148 28.2484L40.6881 29.623V29.0001C40.6893 26.5253 39.9049 24.114 38.448 22.1136C36.991 20.1131 34.9366 18.6268 32.5808 17.8687C30.225 17.1106 27.6893 17.1199 25.3391 17.8952C22.9889 18.6705 20.9455 20.1718 19.5032 22.1828C19.3387 22.4118 19.09 22.566 18.8117 22.6116C18.5335 22.6572 18.2486 22.5904 18.0197 22.4259C17.7907 22.2614 17.6365 22.0127 17.5909 21.7345C17.5453 21.4563 17.6121 21.1713 17.7766 20.9424C19.4812 18.5657 21.8963 16.7915 24.6739 15.8753C27.4514 14.9592 30.4481 14.9483 33.2322 15.8444C36.0164 16.7404 38.4442 18.4971 40.166 20.8613C41.8878 23.2256 42.8147 26.0753 42.8131 29.0001V29.623L44.1864 28.2484C44.3857 28.049 44.6561 27.937 44.9381 27.937C45.22 27.937 45.4904 28.049 45.6898 28.2484C45.8892 28.4478 46.0012 28.7182 46.0012 29.0001C46.0012 29.2821 45.8892 29.5525 45.6898 29.7518ZM40.2206 37.0565C38.5155 39.4314 36.1008 41.2039 33.3241 42.1191C30.5474 43.0342 27.552 43.0447 24.769 42.149C21.986 41.2533 19.5589 39.4977 17.8372 37.1348C16.1155 34.7719 15.188 31.9237 15.1881 29.0001V28.3772L13.8148 29.7518C13.6154 29.9512 13.345 30.0632 13.0631 30.0632C12.7811 30.0632 12.5107 29.9512 12.3114 29.7518C12.112 29.5525 12 29.2821 12 29.0001C12 28.7182 12.112 28.4478 12.3114 28.2484L15.4989 25.0609C15.5975 24.9621 15.7147 24.8837 15.8437 24.8303C15.9727 24.7768 16.111 24.7493 16.2506 24.7493C16.3902 24.7493 16.5285 24.7768 16.6575 24.8303C16.7865 24.8837 16.9036 24.9621 17.0023 25.0609L20.1898 28.2484C20.3892 28.4478 20.5012 28.7182 20.5012 29.0001C20.5012 29.2821 20.3892 29.5525 20.1898 29.7518C19.9904 29.9512 19.72 30.0632 19.4381 30.0632C19.1561 30.0632 18.8857 29.9512 18.6864 29.7518L17.3131 28.3772V29.0001C17.3106 31.8612 18.3621 34.6229 20.2668 36.7577C21.4518 35.0405 23.1181 33.7121 25.0561 32.9393C24.0151 32.1194 23.2554 30.9955 22.8828 29.7238C22.5102 28.4521 22.5431 27.096 22.977 25.8439C23.4109 24.5918 24.2241 23.506 25.3037 22.7376C26.3833 21.9691 27.6755 21.5562 29.0006 21.5562C30.3257 21.5562 31.6179 21.9691 32.6975 22.7376C33.777 23.506 34.5903 24.5918 35.0242 25.8439C35.4581 27.096 35.491 28.4521 35.1184 29.7238C34.7458 30.9955 33.9861 32.1194 32.9451 32.9393C34.8849 33.7122 36.5523 35.0422 37.737 36.7617C38.0056 36.46 38.2587 36.1448 38.4954 35.8174C38.6599 35.5884 38.9086 35.4342 39.1868 35.3886C39.465 35.343 39.7499 35.4098 39.9789 35.5743C40.2078 35.7388 40.3621 35.9875 40.4076 36.2658C40.4532 36.544 40.3864 36.8289 40.2219 37.0578L40.2206 37.0565ZM29.0006 32.1876C29.8412 32.1876 30.6629 31.9384 31.3618 31.4714C32.0607 31.0044 32.6054 30.3406 32.9271 29.564C33.2488 28.7874 33.3329 27.9329 33.1689 27.1085C33.0049 26.2841 32.6002 25.5268 32.0058 24.9324C31.4114 24.338 30.6541 23.9333 29.8297 23.7693C29.0053 23.6053 28.1508 23.6895 27.3742 24.0111C26.5976 24.3328 25.9338 24.8775 25.4668 25.5764C24.9998 26.2753 24.7506 27.097 24.7506 27.9376C24.7506 29.0648 25.1984 30.1458 25.9954 30.9428C26.7924 31.7398 27.8734 32.1876 29.0006 32.1876ZM29.0006 40.6876C31.5937 40.6842 34.1124 39.8205 36.1618 38.2319C35.3932 37.0298 34.3343 36.0405 33.0828 35.3553C31.8313 34.67 30.4274 34.3108 29.0006 34.3108C27.5738 34.3108 26.1699 34.67 24.9184 35.3553C23.6668 36.0405 22.608 37.0298 21.8393 38.2319C23.8857 39.8262 26.4064 40.6906 29.0006 40.6876Z" fill="white"/>
    </symbol>
    <symbol id="icon-5" viewBox="0 0 58 58">
        <rect width="58" height="58" rx="29" fill="#0E9594"/>
        <path d="M29 15.1875C26.2682 15.1875 23.5976 15.9976 21.3262 17.5153C19.0547 19.0331 17.2844 21.1903 16.2389 23.7142C15.1935 26.2381 14.92 29.0153 15.4529 31.6947C15.9859 34.374 17.3014 36.8352 19.2331 38.7669C21.1648 40.6986 23.626 42.0141 26.3053 42.5471C28.9847 43.0801 31.7619 42.8065 34.2858 41.7611C36.8097 40.7157 38.9669 38.9453 40.4847 36.6738C42.0024 34.4024 42.8125 31.7319 42.8125 29C42.8086 25.3379 41.3522 21.8269 38.7626 19.2374C36.1731 16.6479 32.6621 15.1914 29 15.1875ZM29 40.6875C26.6884 40.6875 24.4288 40.002 22.5068 38.7178C20.5848 37.4336 19.0868 35.6082 18.2022 33.4726C17.3176 31.337 17.0861 28.987 17.5371 26.7199C17.988 24.4527 19.1012 22.3702 20.7357 20.7357C22.3702 19.1012 24.4527 17.988 26.7199 17.5371C28.987 17.0861 31.337 17.3176 33.4726 18.2022C35.6082 19.0868 37.4336 20.5848 38.7178 22.5068C40.002 24.4288 40.6875 26.6884 40.6875 29C40.684 32.0986 39.4515 35.0694 37.2604 37.2604C35.0694 39.4515 32.0986 40.684 29 40.6875ZM22.625 26.3438C22.625 26.0285 22.7185 25.7204 22.8936 25.4583C23.0687 25.1962 23.3176 24.9919 23.6089 24.8713C23.9001 24.7507 24.2205 24.7191 24.5297 24.7806C24.8388 24.8421 25.1228 24.9939 25.3457 25.2168C25.5686 25.4397 25.7204 25.7237 25.7819 26.0328C25.8434 26.342 25.8118 26.6624 25.6912 26.9537C25.5706 27.2449 25.3663 27.4938 25.1042 27.6689C24.8421 27.844 24.534 27.9375 24.2188 27.9375C23.7961 27.9375 23.3907 27.7696 23.0918 27.4707C22.7929 27.1718 22.625 26.7664 22.625 26.3438ZM35.375 26.3438C35.375 26.659 35.2815 26.9671 35.1064 27.2292C34.9313 27.4913 34.6824 27.6956 34.3912 27.8162C34.0999 27.9368 33.7795 27.9684 33.4703 27.9069C33.1612 27.8454 32.8772 27.6936 32.6543 27.4707C32.4314 27.2478 32.2796 26.9638 32.2181 26.6547C32.1566 26.3455 32.1882 26.0251 32.3088 25.7338C32.4295 25.4426 32.6337 25.1937 32.8958 25.0186C33.1579 24.8435 33.466 24.75 33.7813 24.75C34.2039 24.75 34.6093 24.9179 34.9082 25.2168C35.2071 25.5157 35.375 25.9211 35.375 26.3438ZM35.2329 32.7188C33.8663 35.0815 31.5938 36.4375 29 36.4375C26.4062 36.4375 24.1351 35.0828 22.7684 32.7188C22.6916 32.5978 22.6399 32.4626 22.6167 32.3212C22.5934 32.1798 22.599 32.0351 22.6331 31.896C22.6672 31.7568 22.7291 31.6259 22.8151 31.5113C22.901 31.3966 23.0093 31.3006 23.1334 31.2289C23.2574 31.1572 23.3947 31.1113 23.537 31.094C23.6792 31.0767 23.8235 31.0884 23.9611 31.1283C24.0988 31.1682 24.2269 31.2356 24.3378 31.3263C24.4487 31.417 24.5401 31.5293 24.6066 31.6562C25.5987 33.3709 27.1579 34.3125 29 34.3125C30.8421 34.3125 32.4013 33.3695 33.3921 31.6562C33.533 31.4121 33.7651 31.234 34.0373 31.161C34.3096 31.0881 34.5997 31.1262 34.8438 31.2671C35.0879 31.408 35.266 31.6401 35.339 31.9123C35.4119 32.1846 35.3738 32.4746 35.2329 32.7188Z" fill="white"/>
    </symbol>
    <symbol id="icon-arrow-right" viewBox="0 0 24 24">
        <g clip-path="url(#clip0_1_963)">
        <path d="M20.7806 12.5307L14.0306 19.2807C13.8899 19.4214 13.699 19.5005 13.5 19.5005C13.301 19.5005 13.1101 19.4214 12.9694 19.2807C12.8286 19.1399 12.7496 18.9491 12.7496 18.7501C12.7496 18.551 12.8286 18.3602 12.9694 18.2194L18.4397 12.7501H3.75C3.55109 12.7501 3.36032 12.671 3.21967 12.5304C3.07902 12.3897 3 12.199 3 12.0001C3 11.8011 3.07902 11.6104 3.21967 11.4697C3.36032 11.3291 3.55109 11.2501 3.75 11.2501H18.4397L12.9694 5.78068C12.8286 5.63995 12.7496 5.44907 12.7496 5.25005C12.7496 5.05103 12.8286 4.86016 12.9694 4.71943C13.1101 4.5787 13.301 4.49963 13.5 4.49963C13.699 4.49963 13.8899 4.5787 14.0306 4.71943L20.7806 11.4694C20.8504 11.5391 20.9057 11.6218 20.9434 11.7128C20.9812 11.8039 21.0006 11.9015 21.0006 12.0001C21.0006 12.0986 20.9812 12.1962 20.9434 12.2873C20.9057 12.3783 20.8504 12.461 20.7806 12.5307Z" fill="currentColor"/>
        </g>
        <defs>
        <clipPath id="clip0_1_963">
        <rect width="24" height="24" fill="currentColor"/>
        </clipPath>
        </defs>
    </symbol>
    <symbol id="icon-tele" viewBox="0 0 24 24">
        <path d="M7.1026 0.333008H16.9026C20.6359 0.333008 23.6693 3.36634 23.6693 7.09967V16.8997C23.6693 18.6943 22.9564 20.4154 21.6874 21.6844C20.4184 22.9534 18.6972 23.6663 16.9026 23.6663H7.1026C3.36927 23.6663 0.335938 20.633 0.335938 16.8997V7.09967C0.335938 5.30504 1.04885 3.58391 2.31785 2.31492C3.58684 1.04592 5.30797 0.333008 7.1026 0.333008ZM6.86927 2.66634C5.75536 2.66634 4.68708 3.10884 3.89942 3.89649C3.11177 4.68415 2.66927 5.75243 2.66927 6.86634V17.133C2.66927 19.4547 4.5476 21.333 6.86927 21.333H17.1359C18.2498 21.333 19.3181 20.8905 20.1058 20.1029C20.8934 19.3152 21.3359 18.2469 21.3359 17.133V6.86634C21.3359 4.54467 19.4576 2.66634 17.1359 2.66634H6.86927ZM18.1276 4.41634C18.5144 4.41634 18.8853 4.56999 19.1588 4.84348C19.4323 5.11697 19.5859 5.4879 19.5859 5.87467C19.5859 6.26145 19.4323 6.63238 19.1588 6.90587C18.8853 7.17936 18.5144 7.33301 18.1276 7.33301C17.7408 7.33301 17.3699 7.17936 17.0964 6.90587C16.8229 6.63238 16.6693 6.26145 16.6693 5.87467C16.6693 5.4879 16.8229 5.11697 17.0964 4.84348C17.3699 4.56999 17.7408 4.41634 18.1276 4.41634ZM12.0026 6.16634C13.5497 6.16634 15.0334 6.78092 16.1274 7.87488C17.2214 8.96885 17.8359 10.4526 17.8359 11.9997C17.8359 13.5468 17.2214 15.0305 16.1274 16.1245C15.0334 17.2184 13.5497 17.833 12.0026 17.833C10.4555 17.833 8.97178 17.2184 7.87781 16.1245C6.78385 15.0305 6.16927 13.5468 6.16927 11.9997C6.16927 10.4526 6.78385 8.96885 7.87781 7.87488C8.97178 6.78092 10.4555 6.16634 12.0026 6.16634ZM12.0026 8.49967C11.0743 8.49967 10.1841 8.86842 9.52773 9.5248C8.87135 10.1812 8.5026 11.0714 8.5026 11.9997C8.5026 12.9279 8.87135 13.8182 9.52773 14.4745C10.1841 15.1309 11.0743 15.4997 12.0026 15.4997C12.9309 15.4997 13.8211 15.1309 14.4775 14.4745C15.1339 13.8182 15.5026 12.9279 15.5026 11.9997C15.5026 11.0714 15.1339 10.1812 14.4775 9.5248C13.8211 8.86842 12.9309 8.49967 12.0026 8.49967Z" fill="white"/>
    </symbol>
    <symbol id="icon-tab-1" viewBox="0 0 29 28">
        <path d="M18.4376 8.75C19.0433 8.75 19.6354 8.57039 20.1391 8.23388C20.6427 7.89737 21.0352 7.41907 21.267 6.85947C21.4988 6.29987 21.5595 5.6841 21.4413 5.09004C21.3231 4.49597 21.0314 3.95029 20.6032 3.52199C20.1749 3.09369 19.6292 2.80201 19.0351 2.68385C18.441 2.56568 17.8253 2.62633 17.2657 2.85812C16.7061 3.08991 16.2278 3.48244 15.8913 3.98607C15.5547 4.48969 15.3751 5.0818 15.3751 5.6875C15.3751 6.49973 15.6978 7.27869 16.2721 7.85302C16.8465 8.42735 17.6254 8.75 18.4376 8.75ZM18.4376 4.375C18.6972 4.375 18.951 4.45198 19.1668 4.5962C19.3827 4.74042 19.5509 4.9454 19.6502 5.18523C19.7496 5.42506 19.7756 5.68896 19.7249 5.94356C19.6743 6.19816 19.5493 6.43202 19.3657 6.61558C19.1822 6.79914 18.9483 6.92414 18.6937 6.97478C18.4391 7.02543 18.1752 6.99943 17.9354 6.90009C17.6955 6.80075 17.4906 6.63253 17.3463 6.41669C17.2021 6.20085 17.1251 5.94709 17.1251 5.6875C17.1251 5.3394 17.2634 5.00557 17.5096 4.75942C17.7557 4.51328 18.0895 4.375 18.4376 4.375ZM28.3776 21.4288L22.4101 11.3575C22.2562 11.0951 22.0361 10.8778 21.7718 10.7273C21.5074 10.5768 21.2082 10.4984 20.904 10.5C20.6 10.4984 20.3009 10.5768 20.0368 10.7273C19.7726 10.8778 19.5527 11.0952 19.399 11.3575L16.5378 16.1875L11.6334 7.86406C11.4789 7.60141 11.2584 7.38367 10.9939 7.23239C10.7293 7.0811 10.4299 7.00152 10.1251 7.00152C9.82039 7.00152 9.52093 7.0811 9.25639 7.23239C8.99185 7.38367 8.7714 7.60141 8.61686 7.86406L0.621543 21.4309C0.543282 21.5638 0.501527 21.715 0.500507 21.8692C0.499488 22.0234 0.53924 22.1752 0.615737 22.3091C0.692234 22.443 0.802759 22.5543 0.936117 22.6317C1.06947 22.7091 1.22093 22.7499 1.37514 22.75H27.6251C27.7796 22.75 27.9313 22.7091 28.0648 22.6314C28.1983 22.5538 28.3089 22.4422 28.3853 22.308C28.4617 22.1738 28.5013 22.0218 28.5 21.8674C28.4986 21.7129 28.4564 21.5616 28.3776 21.4288ZM10.1251 8.75L12.7031 13.125H7.54717L10.1251 8.75ZM2.90639 21L6.51576 14.875H13.7345L15.7842 18.3531L17.3439 21H2.90639ZM19.375 21L17.5528 17.9069L20.904 12.25L26.0939 21H19.375Z" fill="#562C2C"/>
    </symbol>  
    <symbol id="icon-tab-2" viewBox="0 0 29 28">
        <path d="M24.0653 8.00532V1.75M22.7727 10.0904C22.7727 10.3997 22.8637 10.7021 23.0341 10.9592C23.2046 11.2164 23.4468 11.4169 23.7303 11.5352C24.0137 11.6536 24.3256 11.6845 24.6265 11.6242C24.9274 11.5639 25.2038 11.4149 25.4207 11.1962C25.6376 10.9775 25.7853 10.6989 25.8452 10.3955C25.905 10.0922 25.8743 9.77773 25.7569 9.49197C25.6395 9.20622 25.4407 8.96198 25.1856 8.79015C24.9819 8.65291 24.7496 8.56678 24.508 8.53766C24.3907 8.52352 24.2771 8.47941 24.1939 8.39553V8.39553C24.1115 8.31253 24.0653 8.20036 24.0653 8.08346V7.48404M12.4318 22.6011C10.1465 22.6011 8.29545 20.5003 8.29545 17.9096C8.29545 15.3188 10.1465 13.2181 12.4318 13.2181H13.2591C15.8391 13.2181 17.569 12.7067 19.6113 10.671C19.6489 10.6335 19.6705 10.5819 19.6705 10.5287V10.5287C19.6705 10.4272 19.5947 10.3417 19.4941 10.3279C17.9618 10.1181 17.0313 9.76969 16.7027 9.62991C16.619 9.5943 16.5682 9.51176 16.5682 9.42078V9.42078C16.5682 9.34961 16.5987 9.28288 16.6545 9.23867C16.9911 8.97188 18.2704 8.0084 19.7559 7.53647C19.858 7.50405 19.929 7.4103 19.929 7.30321V7.30321C19.929 7.2514 19.9122 7.20082 19.8809 7.15958C18.3024 5.0845 15.9216 3.83511 13.2591 3.83511H12.4318C11.388 3.83404 10.3515 4.01026 9.36574 4.35638M12.4318 22.6011C9.9635 22.6011 7.59627 21.6125 5.8509 19.8529C4.10554 18.0932 3.125 15.7066 3.125 13.2181M12.4318 22.6011C13.52 20.6358 15.5317 19.0302 17.8462 18.9549C17.9398 18.9518 18.0159 19.0281 18.0159 19.1217V19.1217C18.0159 19.1786 17.9884 19.2311 17.9426 19.2647C17.5861 19.526 16.0511 20.7581 16.0511 22.6011C16.0511 24.444 17.5861 25.6761 17.9426 25.9375C17.9884 25.9711 18.0159 26.0235 18.0159 26.0804V26.0804C18.0159 26.1741 17.9398 26.2503 17.8462 26.2472C15.5317 26.172 13.52 24.5663 12.4318 22.6011ZM9.36574 4.35638H9.32955C7.45434 4.35638 5.83073 3.26933 5.34268 2.90786C5.24397 2.83476 5.12597 2.79255 5.00314 2.79255V2.79255C4.80284 2.79255 4.62197 2.90471 4.54811 3.09089C4.17668 4.02722 3.125 7.20894 3.125 13.2181M9.36574 4.35638C7.54233 4.99847 5.96211 6.19635 4.84396 7.78409C3.72581 9.37183 3.12509 11.2708 3.125 13.2181M14.5 8.00532V5.92021" stroke="#562C2C" stroke-width="1.25"/>
    </symbol>
    <symbol id="icon-tab-3" viewBox="0 0 29 28">
        <path d="M25.875 13.125H24.9628C24.7528 10.6525 23.6753 8.33394 21.9207 6.57934C20.1661 4.82473 17.8475 3.74716 15.375 3.53719V2.625C15.375 2.39294 15.2828 2.17038 15.1187 2.00628C14.9546 1.84219 14.7321 1.75 14.5 1.75C14.2679 1.75 14.0454 1.84219 13.8813 2.00628C13.7172 2.17038 13.625 2.39294 13.625 2.625V3.53719C11.1525 3.74716 8.83394 4.82473 7.07934 6.57934C5.32473 8.33394 4.24716 10.6525 4.03719 13.125H3.125C2.89294 13.125 2.67038 13.2172 2.50628 13.3813C2.34219 13.5454 2.25 13.7679 2.25 14C2.25 14.2321 2.34219 14.4546 2.50628 14.6187C2.67038 14.7828 2.89294 14.875 3.125 14.875H4.03719C4.24716 17.3475 5.32473 19.6661 7.07934 21.4207C8.83394 23.1753 11.1525 24.2528 13.625 24.4628V25.375C13.625 25.6071 13.7172 25.8296 13.8813 25.9937C14.0454 26.1578 14.2679 26.25 14.5 26.25C14.7321 26.25 14.9546 26.1578 15.1187 25.9937C15.2828 25.8296 15.375 25.6071 15.375 25.375V24.4628C17.8475 24.2528 20.1661 23.1753 21.9207 21.4207C23.6753 19.6661 24.7528 17.3475 24.9628 14.875H25.875C26.1071 14.875 26.3296 14.7828 26.4937 14.6187C26.6578 14.4546 26.75 14.2321 26.75 14C26.75 13.7679 26.6578 13.5454 26.4937 13.3813C26.3296 13.2172 26.1071 13.125 25.875 13.125ZM15.375 22.7063V21.875C15.375 21.6429 15.2828 21.4204 15.1187 21.2563C14.9546 21.0922 14.7321 21 14.5 21C14.2679 21 14.0454 21.0922 13.8813 21.2563C13.7172 21.4204 13.625 21.6429 13.625 21.875V22.7063C11.6178 22.5014 9.74274 21.6106 8.31609 20.1839C6.88944 18.7573 5.99855 16.8822 5.79375 14.875H6.625C6.85706 14.875 7.07962 14.7828 7.24372 14.6187C7.40781 14.4546 7.5 14.2321 7.5 14C7.5 13.7679 7.40781 13.5454 7.24372 13.3813C7.07962 13.2172 6.85706 13.125 6.625 13.125H5.79375C5.99855 11.1178 6.88944 9.24274 8.31609 7.81609C9.74274 6.38944 11.6178 5.49855 13.625 5.29375V6.125C13.625 6.35706 13.7172 6.57962 13.8813 6.74372C14.0454 6.90781 14.2679 7 14.5 7C14.7321 7 14.9546 6.90781 15.1187 6.74372C15.2828 6.57962 15.375 6.35706 15.375 6.125V5.29375C17.3822 5.49855 19.2573 6.38944 20.6839 7.81609C22.1106 9.24274 23.0014 11.1178 23.2063 13.125H22.375C22.1429 13.125 21.9204 13.2172 21.7563 13.3813C21.5922 13.5454 21.5 13.7679 21.5 14C21.5 14.2321 21.5922 14.4546 21.7563 14.6187C21.9204 14.7828 22.1429 14.875 22.375 14.875H23.2063C23.0014 16.8822 22.1106 18.7573 20.6839 20.1839C19.2573 21.6106 17.3822 22.5014 15.375 22.7063ZM14.5 9.625C13.6347 9.625 12.7888 9.88159 12.0694 10.3623C11.3499 10.8431 10.7892 11.5263 10.458 12.3258C10.1269 13.1252 10.0403 14.0049 10.2091 14.8535C10.3779 15.7022 10.7946 16.4817 11.4064 17.0936C12.0183 17.7054 12.7978 18.1221 13.6465 18.2909C14.4951 18.4597 15.3748 18.3731 16.1742 18.042C16.9737 17.7108 17.6569 17.1501 18.1377 16.4306C18.6184 15.7112 18.875 14.8653 18.875 14C18.875 12.8397 18.4141 11.7269 17.5936 10.9064C16.7731 10.0859 15.6603 9.625 14.5 9.625ZM14.5 16.625C13.9808 16.625 13.4733 16.471 13.0416 16.1826C12.6099 15.8942 12.2735 15.4842 12.0748 15.0045C11.8761 14.5249 11.8242 13.9971 11.9254 13.4879C12.0267 12.9787 12.2767 12.511 12.6438 12.1438C13.011 11.7767 13.4787 11.5267 13.9879 11.4254C14.4971 11.3242 15.0249 11.3761 15.5045 11.5748C15.9842 11.7735 16.3942 12.1099 16.6826 12.5416C16.971 12.9733 17.125 13.4808 17.125 14C17.125 14.6962 16.8484 15.3639 16.3562 15.8562C15.8639 16.3484 15.1962 16.625 14.5 16.625Z" fill="#562C2C"/>
    </symbol>
    <symbol id="icon-file" viewBox="0 0 32 32">
        <path d="M26.2075 15.2925C26.3005 15.3854 26.3743 15.4957 26.4246 15.6171C26.4749 15.7385 26.5008 15.8686 26.5008 16C26.5008 16.1314 26.4749 16.2616 26.4246 16.383C26.3743 16.5044 26.3005 16.6146 26.2075 16.7075L15.9513 26.9575C14.6383 28.2703 12.8576 29.0078 11.0008 29.0077C9.14412 29.0076 7.36348 28.2699 6.05066 26.9569C4.73784 25.6439 4.00037 23.8632 4.00049 22.0065C4.00061 20.1497 4.7383 18.3691 6.05129 17.0563L18.4588 4.46627C19.3962 3.5279 20.6679 3.00034 21.9943 2.99963C23.3206 2.99893 24.5929 3.52515 25.5313 4.46252C26.4697 5.3999 26.9972 6.67164 26.9979 7.998C26.9986 9.32435 26.4724 10.5967 25.535 11.535L13.125 24.125C12.5615 24.6886 11.7971 25.0052 11 25.0052C10.203 25.0052 9.43862 24.6886 8.87504 24.125C8.31145 23.5614 7.99483 22.7971 7.99483 22C7.99483 21.203 8.31145 20.4386 8.87504 19.875L19.2875 9.29752C19.3787 9.20022 19.4885 9.12215 19.6103 9.06789C19.7322 9.01364 19.8636 8.98431 19.997 8.98163C20.1303 8.97895 20.2629 9.00296 20.3868 9.05227C20.5107 9.10157 20.6235 9.17516 20.7186 9.26872C20.8136 9.36227 20.889 9.47389 20.9403 9.59702C20.9915 9.72014 21.0177 9.85227 21.0171 9.98564C21.0165 10.119 20.9893 10.2509 20.937 10.3736C20.8847 10.4963 20.8084 10.6073 20.7125 10.7L10.2988 21.2888C10.2055 21.3813 10.1314 21.4912 10.0807 21.6124C10.03 21.7335 10.0036 21.8635 10.003 21.9948C10.0025 22.1261 10.0279 22.2563 10.0777 22.3778C10.1274 22.4994 10.2007 22.6099 10.2932 22.7031C10.3857 22.7964 10.4956 22.8705 10.6168 22.9212C10.7379 22.972 10.8678 22.9984 10.9992 22.9989C11.1305 22.9994 11.2607 22.9741 11.3822 22.9243C11.5038 22.8745 11.6143 22.8013 11.7075 22.7088L24.1163 10.125C24.6799 9.5626 24.997 8.79932 24.9978 8.00312C24.9986 7.20691 24.6831 6.44298 24.1207 5.8794C23.5582 5.31581 22.795 4.99873 21.9988 4.99791C21.2025 4.99709 20.4386 5.3126 19.875 5.87502L7.47004 18.46C7.00532 18.924 6.63654 19.475 6.38476 20.0815C6.13297 20.688 6.00311 21.3381 6.00259 21.9948C6.00207 22.6515 6.1309 23.3018 6.38171 23.9087C6.63253 24.5156 7.00044 25.0672 7.46441 25.5319C7.92839 25.9966 8.47935 26.3654 9.08585 26.6172C9.69235 26.869 10.3425 26.9988 10.9992 26.9993C11.6559 26.9999 12.3062 26.871 12.9131 26.6202C13.52 26.3694 14.0716 26.0015 14.5363 25.5375L24.7938 15.2875C24.982 15.1008 25.2366 14.9964 25.5017 14.9974C25.7668 14.9983 26.0207 15.1045 26.2075 15.2925Z" fill="#1E88F9"/>
    </symbol>
    <symbol id="icon-evelop" viewBox="0 0 24 24" fill="none">
        <path d="M7.40018 6.32003L15.8902 3.49003C19.7002 2.22003 21.7702 4.30003 20.5102 8.11003L17.6802 16.6C15.7802 22.31 12.6602 22.31 10.7602 16.6L9.92018 14.08L7.40018 13.24C1.69018 11.34 1.69018 8.23003 7.40018 6.32003Z" stroke="white" stroke-width="1.5" stroke-linecap="round" stroke-linejoin="round"/>
        <path d="M10.1099 13.6501L13.6899 10.0601" stroke="white" stroke-width="1.5" stroke-linecap="round" stroke-linejoin="round"/>
    </symbol>
    <symbol id="icon-chat" viewBox="0 0 56 56" fill="none">
        <rect width="56" height="56" rx="28" fill="#F2542D"/>
        <path d="M41.0078 35.3449C41.6988 33.9117 42.0378 32.3344 41.9968 30.7439C41.9557 29.1534 41.5357 27.5956 40.7718 26.2001C40.0078 24.8045 38.9218 23.6113 37.6041 22.7197C36.2864 21.8281 34.7749 21.2638 33.1953 21.0736C32.6697 19.8516 31.9056 18.7467 30.9476 17.8236C29.9897 16.9006 28.8572 16.178 27.6165 15.6981C26.3758 15.2182 25.0518 14.9906 23.7221 15.0288C22.3924 15.0669 21.0836 15.37 19.8725 15.9203C18.6613 16.4706 17.5722 17.2569 16.6687 18.2334C15.7653 19.2098 15.0658 20.3567 14.6111 21.6069C14.1565 22.8571 13.9558 24.1854 14.0209 25.5141C14.086 26.8428 14.4156 28.1451 14.9903 29.3449L14.0816 32.4336C13.9799 32.7784 13.9732 33.1442 14.0619 33.4926C14.1506 33.8409 14.3316 34.1589 14.5858 34.4131C14.84 34.6673 15.158 34.8483 15.5063 34.937C15.8547 35.0258 16.2205 35.019 16.5653 34.9174L19.6541 34.0086C20.6458 34.4851 21.7092 34.7955 22.8016 34.9274C23.3323 36.1709 24.1097 37.2938 25.0867 38.2284C26.0637 39.1629 27.2201 39.8897 28.486 40.3646C29.7518 40.8396 31.1008 41.0529 32.4515 40.9917C33.8021 40.9305 35.1263 40.5961 36.3441 40.0086L39.4328 40.9174C39.7775 41.0188 40.1432 41.0256 40.4914 40.9369C40.8396 40.8482 41.1574 40.6674 41.4116 40.4134C41.6657 40.1594 41.8467 39.8416 41.9356 39.4934C42.0244 39.1453 42.0179 38.7796 41.9166 38.4349L41.0078 35.3449ZM19.7491 31.9374C19.6535 31.9376 19.5584 31.951 19.4666 31.9774L15.9991 32.9999L17.0203 29.5299C17.0929 29.2792 17.0647 29.01 16.9416 28.7799C16.0369 27.0881 15.7704 25.1276 16.1905 23.2557C16.6106 21.3838 17.6894 19.7252 19.2302 18.5823C20.7711 17.4394 22.6713 16.8882 24.5845 17.0292C26.4978 17.1703 28.2966 17.9942 29.6532 19.3507C31.0097 20.7073 31.8336 22.5061 31.9747 24.4194C32.1157 26.3326 31.5646 28.2329 30.4216 29.7737C29.2787 31.3145 27.6201 32.3933 25.7482 32.8134C23.8763 33.2335 21.9158 32.967 20.2241 32.0624C20.0786 31.9818 19.9153 31.9389 19.7491 31.9374ZM38.9728 35.5286L39.9991 38.9999L36.5291 37.9786C36.2784 37.906 36.0092 37.9342 35.7791 38.0574C33.9376 39.0406 31.7849 39.2658 29.7798 38.6849C27.7747 38.1039 26.0759 36.7628 25.0453 34.9474C26.4145 34.8044 27.7394 34.3801 28.9369 33.701C30.1344 33.0219 31.1787 32.1026 32.0041 31.0009C32.8296 29.8991 33.4184 28.6387 33.7338 27.2987C34.0491 25.9586 34.0841 24.5678 33.8366 23.2136C35.0295 23.4948 36.142 24.0464 37.088 24.8257C38.0339 25.6051 38.7882 26.5914 39.2925 27.7085C39.7969 28.8256 40.0378 30.0437 39.9966 31.2687C39.9555 32.4937 39.6334 33.6928 39.0553 34.7736C38.9308 35.0051 38.9026 35.2764 38.9766 35.5286H38.9728Z" fill="white"/>
    </symbol>
</svg>